<svg xmlns="http://www.w3.org/2000/svg" xmlns:xlink="http://www.w3.org/1999/xlink" version="1.1" id="Layer_1" x="0px" y="0px" enable-background="new 0 0 688 688" xml:space="preserve" viewBox="77.6 104.56 491.84 491.76">
<path fill="#000000" opacity="1.000000" stroke="none" d=" M568.552124,340.623627   C569.474548,343.836060 569.346741,346.680573 569.347046,349.510529   C569.354248,416.340637 569.377136,483.170746 569.349854,550.000854   C569.339294,575.959412 549.593628,596.019775 523.628296,596.225830   C499.964264,596.413696 476.297577,596.261414 452.632050,596.260681   C361.469788,596.257935 270.307495,596.279175 179.145233,596.237732   C155.022812,596.226746 136.817017,581.391541 132.219223,558.097290   C131.676865,555.349487 131.654160,552.468689 131.651581,549.649353   C131.616547,511.317871 131.593262,472.986267 131.682831,434.654999   C131.691360,431.000366 130.800018,427.870697 128.982788,424.744537   C114.079582,399.106506 99.265396,373.416718 84.424614,347.742401   C70.793106,324.160156 78.091377,296.681824 101.744423,283.015320   C192.341370,230.669174 282.962555,178.365051 373.574829,126.045479   C381.799042,121.296806 389.985687,116.481445 398.256073,111.814568   C423.795776,97.402817 450.304626,104.932625 464.919281,130.346405   C497.475494,186.959122 530.166992,243.494156 562.875916,300.018860   C568.907410,310.441925 570.701965,321.468903 568.592346,333.217438   C568.174255,335.545715 568.090210,337.846161 568.552124,340.623627  M209.500000,577.104370   C313.306641,577.100769 417.113281,577.093933 520.919922,577.096619   C539.634216,577.097107 550.658936,566.079834 550.663879,547.238159   C550.680847,482.588013 550.457703,417.936615 550.823669,353.288513   C550.922241,335.873322 539.486938,322.696167 520.482178,322.756927   C415.843262,323.091583 311.202789,322.913116 206.562836,322.911865   C197.231918,322.911743 187.897232,322.751556 178.570908,322.960815   C161.105225,323.352692 150.334778,334.365173 150.329422,351.753571   C150.309204,417.403473 150.319580,483.053345 150.359390,548.703247   C150.369629,565.567566 161.592987,576.873108 178.507965,577.077087   C188.503967,577.197693 198.502563,577.102783 209.500000,577.104370  M168.082321,266.635620   C160.575699,270.958466 153.005005,275.174438 145.576736,279.627991   C132.865097,287.249115 119.376701,293.640106 107.384964,302.370972   C93.777954,312.277832 92.989441,332.129120 105.477554,344.209686   C116.139664,337.992706 126.936577,331.749878 137.654846,325.374786   C138.873901,324.649719 139.676422,323.202942 140.629456,322.055389   C147.396744,313.906677 155.336746,307.183655 166.046036,305.517670   C174.407150,304.216980 181.445572,300.535126 188.427567,296.281891   C192.695023,293.682251 197.059464,291.241425 201.388092,288.742706   C277.428131,244.847946 353.471130,200.958298 429.507385,157.057053   C436.533569,153.000336 443.518799,148.872681 450.418304,144.839188   C444.578217,127.396248 426.227051,117.405502 407.153229,128.492371   C327.792358,174.621658 248.219025,220.385483 168.082321,266.635620  M439.499969,303.735565   C455.831696,303.734558 472.174652,303.351746 488.492157,303.832855   C507.288452,304.387024 526.440491,300.701630 545.427490,308.747894   C544.543640,306.854309 544.142273,305.794647 543.583313,304.825806   C526.100525,274.521912 508.509399,244.279724 491.208740,213.872269   C488.674622,209.418320 486.694977,209.031097 482.384186,211.533463   C430.802338,241.476028 379.114990,271.236725 327.468903,301.068695   C326.467712,301.646973 325.097534,301.992889 324.773834,303.735107   C362.854553,303.735107 400.677246,303.735107 439.499969,303.735565  M389.601776,243.076111   C398.266418,238.090302 406.936005,233.112991 415.594727,228.116928   C435.077789,216.875198 454.514099,205.551285 474.074188,194.445251   C477.523651,192.486679 478.042816,190.781708 475.874359,187.474030   C472.864960,182.883545 470.294708,178.003738 467.568390,173.229553   C465.293732,169.246323 463.311035,165.074356 460.161591,161.210052   C378.282837,208.492065 296.772705,255.561188 214.332855,303.167206   C216.136276,303.528503 216.604538,303.704132 217.072891,303.704407   C238.571442,303.717712 260.070038,303.699280 281.568512,303.737946   C284.010651,303.742340 286.089294,302.945526 288.152618,301.751221   C321.751282,282.303101 355.365967,262.882660 389.601776,243.076111  M129.105637,387.093201   C129.866791,387.844086 129.836166,389.298920 131.102264,389.525696   C131.102264,376.991913 131.102264,364.503876 131.102264,351.203949   C125.078354,354.687714 119.815941,357.731110 114.065613,361.056671   C119.144485,369.863770 123.950630,378.197937 129.105637,387.093201  z"/>
<path fill="#000000" opacity="1.000000" stroke="none" d=" M248.999542,438.103668   C231.519821,438.103851 214.535629,437.873108 197.561707,438.190948   C187.456802,438.380096 183.519836,433.796326 184.307480,423.996948   C185.289017,411.785095 184.462418,399.414764 184.167145,387.118805   C184.010590,380.598328 188.020798,375.779297 194.602295,375.759369   C218.406113,375.687286 242.210495,375.683014 266.014191,375.775085   C272.227814,375.799103 276.184479,380.067169 276.199097,386.323242   C276.231323,400.134216 276.243378,413.945343 276.209137,427.756287   C276.193176,434.191925 272.803986,437.707642 265.977356,438.020813   C260.494965,438.272278 254.992798,438.092133 248.999542,438.103668  M203.356262,407.799622   C203.350479,410.131622 203.440491,412.468781 203.315247,414.794342   C203.149643,417.868958 204.623459,418.863342 207.530777,418.851440   C222.522141,418.789948 237.514328,418.775665 252.505234,418.882782   C255.833389,418.906555 256.896332,417.481476 256.796234,414.364716   C256.646576,409.705048 256.500305,405.023773 256.783936,400.378021   C257.043762,396.121704 255.274628,394.933014 251.255234,394.993896   C238.764908,395.183105 226.270142,395.066895 213.777115,395.090149   C203.679138,395.108917 203.679367,395.122345 203.446976,404.902893   C203.431152,405.568970 203.409271,406.234894 203.356262,407.799622  z"/>
<path fill="#000000" opacity="1.000000" stroke="none" d=" M320.779480,522.695068   C329.962341,523.012817 334.656342,528.917358 331.657440,535.864685   C329.721191,540.350281 325.913605,541.419067 321.426514,541.412476   C296.129456,541.375305 270.832336,541.404907 245.535217,541.404907   C229.724518,541.404907 213.913788,541.413635 198.103149,541.377136   C190.500305,541.359619 185.893982,537.671448 186.036774,531.838440   C186.177750,526.080261 190.538467,522.703979 197.984619,522.701477   C238.759598,522.687744 279.534576,522.694763 320.779480,522.695068  z"/>
<path fill="#000000" opacity="1.000000" stroke="none" d=" M215.000122,485.983032   C232.466537,485.991425 249.433228,485.953461 266.399353,486.031433   C272.714600,486.060455 276.439423,488.703644 277.334442,493.403107   C278.639069,500.253387 274.479340,505.102173 266.821655,505.181427   C253.183350,505.322601 239.542648,505.235535 225.902954,505.240692   C216.588028,505.244232 207.272812,505.286102 197.958252,505.228699   C190.740906,505.184235 185.857681,501.069336 186.006012,495.310303   C186.147812,489.804504 190.892410,486.079163 198.032883,485.990906   C203.521179,485.923065 209.011017,485.980804 215.000122,485.983032  z"/>
</svg>