<svg xmlns="http://www.w3.org/2000/svg" xmlns:xlink="http://www.w3.org/1999/xlink" version="1.1" id="Layer_1" x="0px" y="0px" enable-background="new 0 0 992 992" xml:space="preserve" viewBox="249.62 224.9 502.73 491.46">
<path fill="#000000" opacity="1.000000" stroke="none" d=" M752.334595,548.000122   C752.337463,592.827820 752.357117,637.155457 752.333374,681.483154   C752.325317,696.508850 744.364746,708.629883 730.987000,713.938293   C726.957214,715.537292 722.710388,716.351624 718.331421,716.351562   C573.349915,716.349731 428.368378,716.372681 283.386871,716.338379   C264.505890,716.333923 249.784088,701.423584 249.681213,682.261108   C249.563126,660.264526 249.651489,638.266785 249.651398,616.269592   C249.651077,535.946472 249.646957,455.623413 249.653946,375.300323   C249.655930,352.429688 263.457642,338.380432 286.323456,338.798309   C294.437683,338.946594 301.171692,335.488037 308.226196,332.815948   C362.477020,312.267181 416.659302,291.537445 470.865753,270.871460   C509.383148,256.186859 547.891968,241.479645 586.431396,226.853134   C601.305420,221.208115 616.705139,228.162186 622.670471,243.188385   C626.349243,252.455032 630.115601,261.711670 633.178040,271.187561   C634.666077,275.792023 636.882996,276.698395 641.085876,275.570526   C644.598755,274.627808 648.333679,274.423004 651.762878,273.273071   C668.975586,267.501007 687.822998,276.999146 691.271301,298.499451   C693.212280,310.601715 696.065979,322.555267 698.304443,334.613708   C698.888794,337.761963 700.446167,338.604919 703.400146,338.703949   C710.529236,338.942871 717.672668,337.952454 724.796570,339.468689   C741.740906,343.074982 752.307251,355.731049 752.317505,373.022522   C752.351868,431.181702 752.332886,489.340881 752.334595,548.000122  M466.500092,354.372070   C406.009674,354.374695 345.519226,354.365021 285.028809,354.390167   C272.779083,354.395264 265.407135,361.700470 265.374054,373.990662   C265.303558,400.154022 265.413086,426.317963 265.282257,452.480865   C265.263123,456.311127 266.286957,457.750092 270.349854,457.729736   C299.845581,457.582001 329.342438,457.629517 358.838806,457.682007   C361.315552,457.686432 363.321747,457.071411 365.183655,455.395996   C382.511230,439.804260 399.992615,424.381226 417.173431,408.630035   C422.147278,404.070007 427.412964,401.742126 434.177795,401.782074   C461.173309,401.941437 488.170502,401.799408 515.166504,401.912720   C519.035095,401.928955 520.919067,400.924622 522.179871,396.818512   C528.273010,376.975220 546.972412,364.764954 567.467346,366.704926   C587.460266,368.597382 604.156006,385.077759 606.288269,405.024994   C608.654480,427.161377 593.510803,447.925293 571.936035,452.126129   C549.751831,456.445587 527.929504,443.349243 521.916321,421.788696   C520.944092,418.302917 519.427246,417.302856 516.072388,417.313049   C488.909241,417.395630 461.745697,417.361816 434.582336,417.329926   C432.347260,417.327301 430.445160,417.685333 428.650177,419.296997   C410.566467,435.534363 392.312439,451.583710 374.348724,467.951935   C370.229279,471.705536 365.964142,473.433594 360.469788,473.411072   C330.640533,473.288727 300.810120,473.419678 270.981201,473.261414   C266.606506,473.238220 265.171936,474.602966 265.265533,478.992523   C265.517761,490.819061 265.475098,502.656586 265.280151,514.485291   C265.216736,518.331421 266.308258,519.732788 270.357910,519.726807   C316.348480,519.658997 362.339447,519.709045 408.329681,519.891907   C412.478241,519.908386 414.428223,518.746033 415.703979,514.584595   C422.432770,492.635040 446.037231,479.854065 468.037842,486.064606   C491.076416,492.568115 503.823456,513.700684 498.397644,538.096619   C494.062286,557.589478 477.761169,570.381531 457.099548,570.804138   C437.394775,571.207275 420.842773,558.601257 415.605835,540.319519   C414.478607,536.384583 412.541565,535.273499 408.551910,535.284912   C362.724487,535.416077 316.896210,535.429077 271.069092,535.245972   C266.245270,535.226746 265.192780,536.920837 265.267853,541.327087   C265.497833,554.821594 265.534393,568.326355 265.248810,581.818726   C265.150482,586.464233 266.604370,587.771606 271.194885,587.743164   C300.690216,587.560303 330.187775,587.746399 359.683197,587.571350   C365.291809,587.538086 369.980621,589.084229 374.589508,592.140930   C395.251068,605.844238 416.062500,619.321533 436.736298,633.006592   C439.680450,634.955566 442.646515,635.695801 446.097931,635.689636   C481.926880,635.625793 517.756165,635.584106 553.584656,635.721497   C557.867371,635.737915 560.096436,634.639709 561.397278,630.225891   C567.134216,610.760254 588.553772,597.984680 608.662659,601.462585   C633.376099,605.736938 649.201477,627.818115 644.385681,652.419128   C640.574768,671.887024 624.012512,686.261108 604.156311,687.333557   C585.338562,688.349792 567.033020,675.965088 561.384705,657.656311   C559.736877,652.314941 557.229309,650.909607 551.938171,650.923584   C514.945801,651.021240 477.952728,650.781982 440.959747,650.720398   C437.135376,650.713989 433.872498,649.601257 430.693085,647.511902   C409.414520,633.528687 388.047699,619.679626 366.785461,605.671814   C364.439148,604.125977 362.171326,603.321228 359.378876,603.325989   C329.882507,603.376648 300.385498,603.438721 270.890106,603.257874   C266.421814,603.230408 265.232330,604.680664 265.265900,608.997009   C265.446045,632.159485 265.714081,655.332031 265.214539,678.485107   C264.908417,692.672363 273.103790,700.837585 287.460236,700.811829   C430.109344,700.556885 572.759399,700.532959 715.408203,700.861633   C728.567383,700.891968 736.885864,691.831421 736.845276,679.238281   C736.518250,577.751526 736.664368,476.263214 736.658630,374.775391   C736.657898,361.303986 729.796509,354.376648 716.470276,354.375916   C633.480225,354.371246 550.490173,354.373230 466.500092,354.372070  M609.499939,339.649200   C634.026001,339.649200 658.552063,339.649200 683.691040,339.649200   C680.834717,325.534241 678.081116,312.764679 675.709045,299.924652   C673.984436,290.589661 667.451843,285.708374 658.120300,287.588348   C635.200012,292.205994 612.300110,296.924408 589.387817,301.581909   C538.654724,311.894653 487.916107,322.180267 437.187500,332.515015   C429.181702,334.145996 421.216370,335.975494 413.232330,337.713226   C413.280518,338.358368 413.328705,339.003540 413.376892,339.648682   C478.417877,339.648682 543.458862,339.648682 609.499939,339.649200  M412.394562,310.002350   C393.248657,317.334564 374.102722,324.666779 354.956818,331.998993   C355.129120,332.584625 355.301422,333.170227 355.473724,333.755829   C443.451050,315.883179 531.428406,298.010529 619.921875,280.033020   C616.269531,270.386322 612.890991,261.721832 609.705505,252.986938   C605.202515,240.639282 600.257935,238.351913 588.078979,242.997681   C529.759399,265.244232 471.426514,287.455872 412.394562,310.002350  M546.758484,387.207977   C539.884521,392.670044 535.741272,399.741730 535.432495,408.528412   C535.012451,420.483917 540.550415,429.451385 551.099915,434.740143   C561.353516,439.880524 571.513123,438.705353 580.567810,431.565857   C590.235840,423.942719 592.777405,413.638153 589.982178,402.083710   C585.773804,384.687500 564.476013,376.070282 546.758484,387.207977  M598.016418,671.604309   C618.203979,671.903931 629.680542,661.504150 629.654602,642.963806   C629.638306,631.305542 623.672363,623.221130 613.545654,618.668640   C602.978394,613.918152 592.586182,615.454102 583.747742,623.215576   C575.899902,630.107178 572.705933,639.140869 574.903564,649.326111   C577.478455,661.259888 584.891174,668.989197 598.016418,671.604309  M484.638580,526.690125   C484.320190,524.895508 484.068573,523.085999 483.672974,521.308533   C480.310333,506.200500 464.568024,496.813354 449.462067,500.886047   C434.544098,504.908051 425.698730,520.502075 429.964050,535.260315   C433.708282,548.215515 446.845551,557.215271 459.614014,555.572205   C473.691376,553.760742 484.062683,542.149048 484.638580,526.690125  z"/>
</svg>